<svg viewBox="0 0 124 384" xmlns="http://www.w3.org/2000/svg" style="width:100%;height:auto;display:block">
<defs><clipPath id="c1"><rect x="0" y="0" width="124" height="384" rx="14"/></clipPath></defs>
<g clip-path="url(#c1)">
  <rect x="0" y="0" width="124" height="384" fill="#1a0a00"/>
  <rect x="0" y="0" width="124" height="70" fill="#FF5722"/>
  <text x="62" y="26" text-anchor="middle" font-size="8" fill="white" font-weight="bold" font-family="Arial">🍔 QuickBite</text>
  <text x="62" y="40" text-anchor="middle" font-size="6" fill="rgba(255,255,255,0.8)" font-family="Arial">Deliver to: Cairo, Egypt</text>
  <rect x="10" y="46" width="104" height="16" rx="8" fill="white" opacity="0.2"/>
  <text x="62" y="57" text-anchor="middle" font-size="6" fill="white" font-family="Arial">🔍  Search food...</text>
  <rect x="0" y="70" width="124" height="52" fill="#FF8A65"/>
  <text x="14" y="86" font-size="7" fill="white" font-weight="bold" font-family="Arial">50% OFF</text>
  <text x="14" y="96" font-size="6" fill="white" font-family="Arial">First Order!</text>
  <rect x="14" y="102" width="36" height="12" rx="6" fill="white"/>
  <text x="32" y="111" text-anchor="middle" font-size="6" fill="#FF5722" font-weight="bold" font-family="Arial">Order Now</text>
  <circle cx="100" cy="95" r="22" fill="#FF5722" opacity="0.5"/>
  <text x="100" y="99" text-anchor="middle" font-size="18" font-family="Arial">🍕</text>
  <text x="10" y="134" font-size="7" fill="white" font-weight="bold" font-family="Arial">Categories</text>
  <rect x="10" y="140" width="22" height="22" rx="11" fill="#FF5722"/>
  <text x="21" y="154" text-anchor="middle" font-size="11" font-family="Arial">🍔</text>
  <rect x="38" y="140" width="22" height="22" rx="11" fill="#FF8A65"/>
  <text x="49" y="154" text-anchor="middle" font-size="11" font-family="Arial">🌮</text>
  <rect x="66" y="140" width="22" height="22" rx="11" fill="#FF5722"/>
  <text x="77" y="154" text-anchor="middle" font-size="11" font-family="Arial">🍜</text>
  <rect x="94" y="140" width="22" height="22" rx="11" fill="#FF8A65"/>
  <text x="105" y="154" text-anchor="middle" font-size="11" font-family="Arial">🍣</text>
  <rect x="10" y="168" width="104" height="54" rx="8" fill="#2a1200"/>
  <rect x="10" y="168" width="40" height="54" rx="8" fill="#FF8A65" opacity="0.4"/>
  <text x="30" y="199" text-anchor="middle" font-size="20" font-family="Arial">🍔</text>
  <text x="64" y="182" font-size="6.5" fill="white" font-weight="bold" font-family="Arial">Classic Burger</text>
  <text x="64" y="193" font-size="6" fill="#FF8A65" font-family="Arial">McDonald&#39;s</text>
  <text x="64" y="207" font-size="7" fill="#FF5722" font-weight="bold" font-family="Arial">EGP 89</text>
  <text x="100" y="217" font-size="5" fill="#aaa" font-family="Arial">⭐4.8</text>
  <rect x="10" y="228" width="104" height="54" rx="8" fill="#2a1200"/>
  <rect x="10" y="228" width="40" height="54" rx="8" fill="#FF8A65" opacity="0.4"/>
  <text x="30" y="259" text-anchor="middle" font-size="20" font-family="Arial">🍕</text>
  <text x="64" y="242" font-size="6.5" fill="white" font-weight="bold" font-family="Arial">Pizza Margherita</text>
  <text x="64" y="253" font-size="6" fill="#FF8A65" font-family="Arial">Pizza Hut</text>
  <text x="64" y="267" font-size="7" fill="#FF5722" font-weight="bold" font-family="Arial">EGP 145</text>
  <text x="100" y="277" font-size="5" fill="#aaa" font-family="Arial">⭐4.6</text>
  <rect x="10" y="288" width="104" height="54" rx="8" fill="#2a1200"/>
  <rect x="10" y="288" width="40" height="54" rx="8" fill="#FF8A65" opacity="0.4"/>
  <text x="30" y="319" text-anchor="middle" font-size="20" font-family="Arial">🌮</text>
  <text x="64" y="302" font-size="6.5" fill="white" font-weight="bold" font-family="Arial">Tacos Special</text>
  <text x="64" y="313" font-size="6" fill="#FF8A65" font-family="Arial">Taco Bell</text>
  <text x="64" y="327" font-size="7" fill="#FF5722" font-weight="bold" font-family="Arial">EGP 75</text>
  <text x="100" y="337" font-size="5" fill="#aaa" font-family="Arial">⭐4.5</text>
  <rect x="0" y="352" width="124" height="32" fill="#2a1200"/>
  <text x="21" y="372" text-anchor="middle" font-size="14" font-family="Arial">🏠</text>
  <text x="49" y="372" text-anchor="middle" font-size="14" font-family="Arial">🔍</text>
  <text x="77" y="372" text-anchor="middle" font-size="14" font-family="Arial">🛒</text>
  <text x="105" y="372" text-anchor="middle" font-size="14" font-family="Arial">👤</text>
  <rect x="15" y="378" width="10" height="3" rx="1.5" fill="#FF5722"/>
</g>
</svg>