<svg viewBox="0 0 124 384" xmlns="http://www.w3.org/2000/svg" style="width:100%;height:auto;display:block">
<defs><clipPath id="c4"><rect x="0" y="0" width="124" height="384" rx="14"/></clipPath></defs>
<g clip-path="url(#c4)">
  <rect x="0" y="0" width="124" height="384" fill="#0a1628"/>
  <text x="12" y="20" font-size="6" fill="#aac4ff" font-family="Arial">📍 Cairo, Egypt</text>
  <text x="12" y="34" font-size="10" fill="white" font-weight="bold" font-family="Arial">Explore ✈️</text>
  <rect x="8" y="40" width="108" height="72" rx="10" fill="#1a3060"/>
  <text x="62" y="82" text-anchor="middle" font-size="30" font-family="Arial">🗼</text>
  <rect x="8" y="96" width="108" height="16" fill="rgba(0,0,0,0.5)"/>
  <text x="14" y="107" font-size="6.5" fill="white" font-weight="bold" font-family="Arial">Paris, France</text>
  <text x="112" y="107" text-anchor="end" font-size="6" fill="#FFD740" font-family="Arial">⭐ 4.9</text>
  <rect x="8" y="118" width="32" height="24" rx="6" fill="#1a3060"/>
  <text x="24" y="128" text-anchor="middle" font-size="7" fill="#64B5F6" font-family="Arial">✈️</text>
  <text x="24" y="138" text-anchor="middle" font-size="5" fill="white" font-family="Arial">2h 30m</text>
  <rect x="44" y="118" width="32" height="24" rx="6" fill="#1a3060"/>
  <text x="60" y="128" text-anchor="middle" font-size="7" fill="#81C784" font-family="Arial">🌡️</text>
  <text x="60" y="138" text-anchor="middle" font-size="5" fill="white" font-family="Arial">18°C</text>
  <rect x="80" y="118" width="32" height="24" rx="6" fill="#1a3060"/>
  <text x="96" y="128" text-anchor="middle" font-size="7" fill="#FFB74D" font-family="Arial">💰</text>
  <text x="96" y="138" text-anchor="middle" font-size="5" fill="white" font-family="Arial">$1,200</text>
  <text x="8" y="156" font-size="7" fill="white" font-weight="bold" font-family="Arial">Popular Destinations</text>
  <rect x="8" y="161" width="50" height="62" rx="8" fill="#1a3060"/>
  <text x="33" y="195" text-anchor="middle" font-size="22" font-family="Arial">🗽</text>
  <text x="33" y="214" text-anchor="middle" font-size="5.5" fill="white" font-family="Arial">New York</text>
  <text x="33" y="222" text-anchor="middle" font-size="5" fill="#aac4ff" font-family="Arial">USA</text>
  <rect x="62" y="161" width="50" height="62" rx="8" fill="#1a3060"/>
  <text x="87" y="195" text-anchor="middle" font-size="22" font-family="Arial">⛩️</text>
  <text x="87" y="214" text-anchor="middle" font-size="5.5" fill="white" font-family="Arial">Tokyo</text>
  <text x="87" y="222" text-anchor="middle" font-size="5" fill="#aac4ff" font-family="Arial">Japan</text>
  <rect x="8" y="230" width="50" height="62" rx="8" fill="#1a3060"/>
  <text x="33" y="264" text-anchor="middle" font-size="22" font-family="Arial">🏛️</text>
  <text x="33" y="283" text-anchor="middle" font-size="5.5" fill="white" font-family="Arial">Rome</text>
  <text x="33" y="291" text-anchor="middle" font-size="5" fill="#aac4ff" font-family="Arial">Italy</text>
  <rect x="62" y="230" width="50" height="62" rx="8" fill="#1a3060"/>
  <text x="87" y="264" text-anchor="middle" font-size="22" font-family="Arial">🌴</text>
  <text x="87" y="283" text-anchor="middle" font-size="5.5" fill="white" font-family="Arial">Maldives</text>
  <text x="87" y="291" text-anchor="middle" font-size="5" fill="#aac4ff" font-family="Arial">Indian Ocean</text>
  <text x="8" y="305" font-size="7" fill="white" font-weight="bold" font-family="Arial">My Next Trip</text>
  <rect x="8" y="310" width="108" height="34" rx="8" fill="#1a3060"/>
  <text x="16" y="322" font-size="6" fill="#aac4ff" font-family="Arial">Dubai, UAE  ✈️  Jul 20–27</text>
  <rect x="16" y="326" width="70" height="5" rx="2.5" fill="rgba(255,255,255,0.15)"/>
  <rect x="16" y="326" width="46" height="5" rx="2.5" fill="#40C4FF"/>
  <text x="16" y="340" font-size="5.5" fill="#aac4ff" font-family="Arial">Booked: Flight + Hotel</text>
  <rect x="86" y="326" width="22" height="14" rx="7" fill="#40C4FF"/>
  <text x="97" y="336" text-anchor="middle" font-size="5.5" fill="white" font-weight="bold" font-family="Arial">View</text>
  <rect x="0" y="352" width="124" height="32" fill="#0a1628"/>
  <text x="23" y="372" text-anchor="middle" font-size="13" font-family="Arial">🏠</text>
  <text x="50" y="372" text-anchor="middle" font-size="13" font-family="Arial">🔍</text>
  <text x="77" y="372" text-anchor="middle" font-size="13" font-family="Arial">🗺️</text>
  <text x="104" y="372" text-anchor="middle" font-size="13" font-family="Arial">👤</text>
  <rect x="17" y="378" width="12" height="3" rx="1.5" fill="#40C4FF"/>
</g>
</svg>