<svg viewBox="0 0 124 384" xmlns="http://www.w3.org/2000/svg" style="width:100%;height:auto;display:block">
<defs><clipPath id="c5"><rect x="0" y="0" width="124" height="384" rx="14"/></clipPath></defs>
<g clip-path="url(#c5)">
  <rect x="0" y="0" width="124" height="384" fill="#0f0f1a"/>
  <text x="12" y="18" font-size="6" fill="#aaa" font-family="Arial">My Wallet</text>
  <circle cx="110" cy="14" r="9" fill="#1a1a2e"/>
  <text x="110" y="18" text-anchor="middle" font-size="9" font-family="Arial">🔔</text>
  <rect x="8" y="26" width="108" height="62" rx="12" fill="#6C63FF"/>
  <circle cx="92" cy="40" r="14" fill="rgba(255,255,255,0.1)"/>
  <circle cx="106" cy="40" r="14" fill="rgba(255,255,255,0.08)"/>
  <text x="18" y="46" font-size="6" fill="rgba(255,255,255,0.7)" font-family="Arial">Total Balance</text>
  <text x="18" y="62" font-size="13" fill="white" font-weight="bold" font-family="Arial">EGP 42,850</text>
  <text x="18" y="78" font-size="5.5" fill="rgba(255,255,255,0.7)" font-family="Arial">•••• •••• •••• 4892</text>
  <text x="94" y="83" font-size="5" fill="rgba(255,255,255,0.7)" font-family="Arial">12/27</text>
  <rect x="8" y="94" width="24" height="26" rx="8" fill="#1a1a2e"/>
  <text x="20" y="109" text-anchor="middle" font-size="11" font-family="Arial">💸</text>
  <text x="20" y="119" text-anchor="middle" font-size="5" fill="#aaa" font-family="Arial">Send</text>
  <rect x="36" y="94" width="24" height="26" rx="8" fill="#1a1a2e"/>
  <text x="48" y="109" text-anchor="middle" font-size="11" font-family="Arial">📥</text>
  <text x="48" y="119" text-anchor="middle" font-size="5" fill="#aaa" font-family="Arial">Receive</text>
  <rect x="64" y="94" width="24" height="26" rx="8" fill="#1a1a2e"/>
  <text x="76" y="109" text-anchor="middle" font-size="11" font-family="Arial">📊</text>
  <text x="76" y="119" text-anchor="middle" font-size="5" fill="#aaa" font-family="Arial">Stats</text>
  <rect x="92" y="94" width="24" height="26" rx="8" fill="#1a1a2e"/>
  <text x="104" y="109" text-anchor="middle" font-size="11" font-family="Arial">➕</text>
  <text x="104" y="119" text-anchor="middle" font-size="5" fill="#aaa" font-family="Arial">More</text>
  <text x="9" y="136" font-size="7" fill="white" font-weight="bold" font-family="Arial">Spending This Week</text>
  <rect x="14" y="158" width="10" height="16" rx="3" fill="#6C63FF" opacity="0.4"/>
  <rect x="28" y="146" width="10" height="28" rx="3" fill="#6C63FF" opacity="0.6"/>
  <rect x="42" y="152" width="10" height="22" rx="3" fill="#6C63FF" opacity="0.4"/>
  <rect x="56" y="140" width="10" height="34" rx="3" fill="#6C63FF"/>
  <rect x="70" y="150" width="10" height="24" rx="3" fill="#6C63FF" opacity="0.5"/>
  <rect x="84" y="156" width="10" height="18" rx="3" fill="#6C63FF" opacity="0.4"/>
  <rect x="98" y="144" width="10" height="30" rx="3" fill="#6C63FF" opacity="0.7"/>
  <line x1="8" y1="174" x2="116" y2="174" stroke="#333" stroke-width="0.5"/>
  <text x="19" y="182" text-anchor="middle" font-size="5" fill="#666" font-family="Arial">M</text>
  <text x="33" y="182" text-anchor="middle" font-size="5" fill="#666" font-family="Arial">T</text>
  <text x="47" y="182" text-anchor="middle" font-size="5" fill="#666" font-family="Arial">W</text>
  <text x="61" y="182" text-anchor="middle" font-size="5" fill="#6C63FF" font-family="Arial">T</text>
  <text x="75" y="182" text-anchor="middle" font-size="5" fill="#666" font-family="Arial">F</text>
  <text x="89" y="182" text-anchor="middle" font-size="5" fill="#666" font-family="Arial">S</text>
  <text x="103" y="182" text-anchor="middle" font-size="5" fill="#666" font-family="Arial">S</text>
  <text x="9" y="198" font-size="7" fill="white" font-weight="bold" font-family="Arial">Recent Transactions</text>
  <rect x="8" y="202" width="108" height="26" rx="7" fill="#1a1a2e"/>
  <text x="18" y="218" font-size="13" font-family="Arial">🛒</text>
  <text x="33" y="212" font-size="6" fill="white" font-weight="bold" font-family="Arial">Supermarket</text>
  <text x="33" y="223" font-size="5.5" fill="#666" font-family="Arial">Today · 10:30 AM</text>
  <text x="112" y="218" text-anchor="end" font-size="6.5" fill="#FF5252" font-weight="bold" font-family="Arial">-450</text>
  <rect x="8" y="232" width="108" height="26" rx="7" fill="#1a1a2e"/>
  <text x="18" y="248" font-size="13" font-family="Arial">💊</text>
  <text x="33" y="242" font-size="6" fill="white" font-weight="bold" font-family="Arial">Pharmacy</text>
  <text x="33" y="253" font-size="5.5" fill="#666" font-family="Arial">Yesterday · 2:15 PM</text>
  <text x="112" y="248" text-anchor="end" font-size="6.5" fill="#FF5252" font-weight="bold" font-family="Arial">-180</text>
  <rect x="8" y="262" width="108" height="26" rx="7" fill="#1a1a2e"/>
  <text x="18" y="278" font-size="13" font-family="Arial">💼</text>
  <text x="33" y="272" font-size="6" fill="white" font-weight="bold" font-family="Arial">Salary</text>
  <text x="33" y="283" font-size="5.5" fill="#666" font-family="Arial">Jul 1 · Deposit</text>
  <text x="112" y="278" text-anchor="end" font-size="6.5" fill="#00E676" font-weight="bold" font-family="Arial">+18,500</text>
  <rect x="8" y="292" width="108" height="26" rx="7" fill="#1a1a2e"/>
  <text x="18" y="308" font-size="13" font-family="Arial">⚡</text>
  <text x="33" y="302" font-size="6" fill="white" font-weight="bold" font-family="Arial">Electricity Bill</text>
  <text x="33" y="313" font-size="5.5" fill="#666" font-family="Arial">Jun 30 · Bill Pay</text>
  <text x="112" y="308" text-anchor="end" font-size="6.5" fill="#FF5252" font-weight="bold" font-family="Arial">-320</text>
  <rect x="8" y="322" width="108" height="26" rx="7" fill="#1a1a2e"/>
  <text x="18" y="338" font-size="13" font-family="Arial">🎮</text>
  <text x="33" y="332" font-size="6" fill="white" font-weight="bold" font-family="Arial">Gaming Sub</text>
  <text x="33" y="343" font-size="5.5" fill="#666" font-family="Arial">Jun 29 · Auto Pay</text>
  <text x="112" y="338" text-anchor="end" font-size="6.5" fill="#FF5252" font-weight="bold" font-family="Arial">-99</text>
  <rect x="0" y="352" width="124" height="32" fill="#0f0f1a"/>
  <text x="23" y="372" text-anchor="middle" font-size="13" font-family="Arial">🏠</text>
  <text x="50" y="372" text-anchor="middle" font-size="13" font-family="Arial">💳</text>
  <text x="77" y="372" text-anchor="middle" font-size="13" font-family="Arial">📊</text>
  <text x="104" y="372" text-anchor="middle" font-size="13" font-family="Arial">👤</text>
  <rect x="17" y="378" width="12" height="3" rx="1.5" fill="#6C63FF"/>
</g>
</svg>